<?xml version="1.0" encoding="UTF-8"?>
<svg version="1.1" xmlns="http://www.w3.org/2000/svg" width="820" height="200">
<path d="M0 0 C2.14743006 1.8790013 2.94750314 3.12349884 4 5.75 C4.32655219 11.73679007 2.77177181 16.06385926 -1 20.75 C-1.66 21.41 -2.32 22.07 -3 22.75 C-4.485 22.255 -4.485 22.255 -6 21.75 C-5.525625 21.069375 -5.05125 20.38875 -4.5625 19.6875 C-2.73779611 16.25705668 -2.21111358 13.62041561 -2 9.75 C-2.95642882 6.95428498 -3.35298978 6.07350511 -6 4.75 C-13.90370638 3.57285224 -19.94174449 7.81050682 -26.16796875 12.3203125 C-31.38486956 16.63128443 -35.56489925 21.77281913 -39.70898438 27.09667969 C-41.06889377 28.8382278 -42.44848236 30.56311656 -43.828125 32.2890625 C-51.78960462 42.37122438 -58.93684461 52.93815662 -65.99584961 63.66015625 C-66.37183792 64.23118576 -66.74782623 64.80221527 -67.13520813 65.39054871 C-68.16339501 66.95468715 -69.18848902 68.52085745 -70.21337891 70.0871582 C-71.74383431 72.36820181 -73.32595575 74.57322519 -75 76.75 C-74.3709375 77.11351563 -73.741875 77.47703125 -73.09375 77.8515625 C-68.08491402 80.79349929 -63.34547657 83.84677174 -58.7890625 87.453125 C-54.8929483 90.27738245 -51.86799097 91.45991535 -47 90.75 C-44.83392475 88.52538218 -43.38311239 86.51622478 -42 83.75 C-41.01 84.08 -40.02 84.41 -39 84.75 C-39.57016125 86.02679728 -40.15679847 87.29624288 -40.75 88.5625 C-41.07484375 89.27019531 -41.3996875 89.97789063 -41.734375 90.70703125 C-43.23191777 93.12436109 -44.54924299 94.31151219 -47 95.75 C-52.64541685 96.81571645 -57.92151928 96.04375194 -62.91015625 93.23828125 C-66.54059723 90.6528644 -69.76334721 87.63812936 -72.99609375 84.578125 C-74.67104357 82.637673 -74.67104357 82.637673 -76 82.75 C-76 86.05 -76 89.35 -76 92.75 C-77.65 92.42 -79.3 92.09 -81 91.75 C-81 89.44 -81 87.13 -81 84.75 C-81.969375 84.770625 -82.93875 84.79125 -83.9375 84.8125 C-87 84.75 -87 84.75 -88 83.75 C-88.25 81.3125 -88.25 81.3125 -88 78.75 C-85 76.75 -85 76.75 -82 76.75 C-82.16226074 75.4707666 -82.32452148 74.1915332 -82.49169922 72.87353516 C-83.04981609 67.82734643 -83.14462994 62.84629242 -83.1328125 57.7734375 C-83.13376923 56.84512115 -83.13472595 55.91680481 -83.13571167 54.96035767 C-83.13638825 53.00563489 -83.13457062 51.05090979 -83.13037109 49.09619141 C-83.12505228 46.15391798 -83.13031502 43.21179977 -83.13671875 40.26953125 C-83.14843964 11.04687928 -83.14843964 11.04687928 -81 6.75 C-79.35 7.08 -77.7 7.41 -76 7.75 C-76 28.54 -76 49.33 -76 70.75 C-71.7925 64.43875 -71.7925 64.43875 -67.5 58 C-62.71875 50.828125 -62.71875 50.828125 -61.53553772 49.05557251 C-59.60877776 46.16825008 -57.68675 43.27806686 -55.77709961 40.37939453 C-55.08624268 39.33380371 -54.39538574 38.28821289 -53.68359375 37.2109375 C-53.07829834 36.29103027 -52.47300293 35.37112305 -51.84936523 34.42333984 C-48.52742287 29.62132415 -44.79814317 25.17899914 -41 20.75 C-40.2678125 19.88246094 -39.535625 19.01492187 -38.78125 18.12109375 C-29.37855878 7.27820159 -15.61873294 -6.50780539 0 0 Z " fill="#000000" transform="translate(492,23.25)"/>
<path d="M0 0 C2 2 2 2 2.5625 4.25 C1.80566504 7.95008203 0.03864161 9.20113969 -2.78515625 11.5703125 C-5.69885756 13.4511144 -8.80747824 14.66029554 -12 16 C-12.29014373 20.46134573 -12.574695 24.92300602 -12.85449219 29.38500977 C-12.95003242 30.89682181 -13.0469921 32.40854495 -13.14550781 33.92016602 C-13.75529171 43.29403783 -14.14785406 52.59997286 -14 62 C-13.49186768 61.53021729 -12.98373535 61.06043457 -12.46020508 60.57641602 C-8.82421875 57.21484375 -8.82421875 57.21484375 -7 56 C-6.01 56.33 -5.02 56.66 -4 57 C-4.88637378 58.11177467 -5.7846465 59.21406614 -6.6875 60.3125 C-7.18636719 60.92738281 -7.68523437 61.54226562 -8.19921875 62.17578125 C-10 64 -10 64 -12.5859375 65.140625 C-16.40458482 68.0818485 -16.28133887 71.8460513 -16.9375 76.4375 C-18.57581351 85.93937756 -20.53512758 95.54653604 -28.125 102.25 C-32.96340099 105.12717832 -38.59587909 104.81061814 -44 104 C-48.48141313 101.87722536 -51.00031308 99.55484243 -53 95 C-53.3125 92.3125 -53.3125 92.3125 -53 90 C-52.01 89.01 -52.01 89.01 -51 88 C-49.68 88 -48.36 88 -47 88 C-46.938125 88.886875 -46.87625 89.77375 -46.8125 90.6875 C-45.79443036 94.83809163 -44.3178299 96.36081713 -41 99 C-37.80087564 100.31246127 -36.34251299 100.09276394 -33 99.1875 C-26.67421325 94.57494716 -24.64255335 86.95576894 -23.26171875 79.51953125 C-22.93112214 76.33692205 -22.95705868 73.19717616 -23 70 C-24.0621875 70.04640625 -25.124375 70.0928125 -26.21875 70.140625 C-41.96852006 70.6284415 -41.96852006 70.6284415 -48.51171875 64.609375 C-53.45533352 59.22664259 -54.44522681 53.62721193 -54.234375 46.57421875 C-53.3784174 37.17295113 -48.88970919 31.28424989 -42 25 C-34.95323662 19.59748141 -24.07491091 12 -15 12 C-14.9071875 10.948125 -14.9071875 10.948125 -14.8125 9.875 C-13.69528762 5.92178696 -11.79812617 4.00286711 -9 1 C-5.98675805 -0.50662097 -3.31713623 -0.17770373 0 0 Z M-9.25 6 C-9.8275 6.66 -10.405 7.32 -11 8 C-10.67 8.66 -10.34 9.32 -10 10 C-5.85329961 7.62370911 -5.85329961 7.62370911 -3 4 C-7.00346023 3.55709077 -7.00346023 3.55709077 -9.25 6 Z M-42 29 C-46.75177318 33.88019949 -48.73731107 39.24176626 -49.375 45.9375 C-49.10740621 51.38570955 -48.03431936 56.70117103 -44.34765625 60.8671875 C-39.16641913 65.44595519 -35.15831316 66.14559577 -28.3125 66.0625 C-27.61060547 66.05798828 -26.90871094 66.05347656 -26.18554688 66.04882812 C-24.45699462 66.03706927 -22.72848635 66.01913454 -21 66 C-20.91435791 64.87094238 -20.82871582 63.74188477 -20.74047852 62.57861328 C-20.41924819 58.34789005 -20.09644566 54.11728793 -19.77319336 49.88671875 C-19.63409945 48.06350871 -19.49541918 46.24026706 -19.35717773 44.41699219 C-19.15720379 41.78051254 -18.95569079 39.14415412 -18.75390625 36.5078125 C-18.66321617 35.30561569 -18.66321617 35.30561569 -18.57069397 34.07913208 C-18.1321782 28.37677065 -17.59010601 22.68860509 -17 17 C-25.2905309 17 -36.17363954 23.4906177 -42 29 Z " fill="#000000" transform="translate(260,28)"/>
<path d="M0 0 C0.66 0 1.32 0 2 0 C2 7.59 2 15.18 2 23 C4.31 20.36 6.62 17.72 9 15 C12.99590851 13.00204575 14.67839666 12.6242084 19 13 C21 15 21 15 21.375 17.75 C20.5081174 25.26298255 13.67652516 31.45303634 8 36 C5.21484375 36.76171875 5.21484375 36.76171875 3 37 C4 34 4 34 6.75 31.8125 C10.39813641 28.90635743 13.18494225 25.31640599 15 21 C14.505 19.515 14.505 19.515 14 18 C8.83078089 19.7439407 6.31571878 22.01999247 3.31640625 26.53515625 C0.68286377 33.4667651 2.12713096 40.87173413 2.78027344 48.11962891 C4.11046497 65.5569619 5.19787739 88.4427594 -6 103 C-7 104 -7 104 -10.5625 104.0625 C-11.696875 104.041875 -12.83125 104.02125 -14 104 C-17.36103238 98.11819334 -18.66242435 93.86984779 -18.5 87.125 C-18.48791504 86.30201416 -18.47583008 85.47902832 -18.46337891 84.63110352 C-17.97158451 69.02333778 -13.48056261 51.63051123 -6.31640625 37.734375 C-4.71081539 34.90511214 -4.71081539 34.90511214 -5 31 C-5.680625 31.66 -6.36125 32.32 -7.0625 33 C-10.72510477 35.49368836 -12.65375654 35.72437391 -17 35 C-20.30011706 30.97583878 -20.37815093 27.52292233 -20.3125 22.4375 C-20.30863281 21.13683594 -20.30476563 19.83617187 -20.30078125 18.49609375 C-20.03016758 15.35064919 -19.67138757 13.61695344 -18 11 C-16.68 11.33 -15.36 11.66 -14 12 C-14 18.27 -14 24.54 -14 31 C-8.29048012 28.74184257 -8.29048012 28.74184257 -5 24 C-4.15506872 20.48903773 -3.75622204 16.96239716 -3.375 13.375 C-3.16059313 11.48617761 -2.93952295 9.59809648 -2.7109375 7.7109375 C-2.62118652 6.87868652 -2.53143555 6.04643555 -2.43896484 5.18896484 C-2 3 -2 3 0 0 Z M-5 43 C-9.86920554 56.56833954 -13.22759991 69.50439752 -13.375 84 C-13.38893799 84.88445801 -13.40287598 85.76891602 -13.41723633 86.68017578 C-13.37681438 92.20590898 -12.52849297 96.07679677 -10 101 C-9.34 101 -8.68 101 -8 101 C-2.57341031 90.39348378 -2.68968418 78.34223288 -2.79418945 66.67700195 C-2.81269131 64.540408 -2.81469656 62.40424472 -2.81445312 60.26757812 C-2.83529302 54.41097363 -2.89344948 48.77448286 -4 43 C-4.33 43 -4.66 43 -5 43 Z " fill="#000000" transform="translate(475,77)"/>
<path d="M0 0 C1.585869 3.171738 1.37866445 6.63513822 1.5625 10.125 C1.60568359 10.87910156 1.64886719 11.63320312 1.69335938 12.41015625 C1.7994832 14.27321888 1.90025001 16.13658524 2 18 C2.42152344 17.14535156 2.84304688 16.29070312 3.27734375 15.41015625 C3.82519531 14.30542969 4.37304688 13.20070313 4.9375 12.0625 C5.48277344 10.96035156 6.02804687 9.85820313 6.58984375 8.72265625 C8 6 8 6 9 5 C11.5 4.875 11.5 4.875 14 5 C15.87824891 6.87824891 15.39102397 10.03935276 15.5625 12.5625 C15.64628906 13.76003906 15.73007812 14.95757812 15.81640625 16.19140625 C15.87699219 17.11824219 15.93757812 18.04507813 16 19 C16.47179687 17.71802734 16.47179687 17.71802734 16.953125 16.41015625 C17.38109375 15.30542969 17.8090625 14.20070313 18.25 13.0625 C18.66765625 11.96035156 19.0853125 10.85820313 19.515625 9.72265625 C21 7 21 7 22.984375 5.99609375 C25 6 25 6 28 8 C28.50830078 9.81591797 28.50830078 9.81591797 28.6953125 11.9921875 C28.77136719 12.77980469 28.84742188 13.56742188 28.92578125 14.37890625 C28.99152344 15.20261719 29.05726563 16.02632812 29.125 16.875 C29.27111153 18.49760696 29.4194741 20.12001312 29.5703125 21.7421875 C29.62977051 22.4626123 29.68922852 23.18303711 29.75048828 23.92529297 C30.00186883 26.01553942 30.44627558 27.97082001 31 30 C28.6875 30.3125 28.6875 30.3125 26 30 C21.89002128 25.74323633 22.28421389 19.59607339 22 14 C21.62488281 15.07121094 21.24976563 16.14242187 20.86328125 17.24609375 C20.34741536 18.64362134 19.83042973 20.04073596 19.3125 21.4375 C19.06822266 22.14455078 18.82394531 22.85160156 18.57226562 23.58007812 C17.80078125 25.62109375 17.80078125 25.62109375 16 29 C13.29296875 29.97265625 13.29296875 29.97265625 11 30 C9.81304447 26.43913342 9.64904582 23.02668976 9.4375 19.3125 C9.39431641 18.61060547 9.35113281 17.90871094 9.30664062 17.18554688 C9.2008264 15.45724794 9.09993419 13.7286489 9 12 C8.51789062 13.13179687 8.03578125 14.26359375 7.5390625 15.4296875 C6.90129197 16.91156608 6.26325739 18.39333105 5.625 19.875 C5.30789063 20.62136719 4.99078125 21.36773437 4.6640625 22.13671875 C4.3546875 22.85214844 4.0453125 23.56757812 3.7265625 24.3046875 C3.44377441 24.96452637 3.16098633 25.62436523 2.86962891 26.30419922 C2 28 2 28 0 30 C-2.93453261 29.63318342 -3.86437246 29.13562754 -6 27 C-6.495 27.495 -6.99 27.99 -7.5 28.5 C-11.19724878 30.71834927 -13.71162487 30.34034723 -18 30 C-18.99 29.34 -19.98 28.68 -21 28 C-21.680625 28.495 -22.36125 28.99 -23.0625 29.5 C-26.72999792 31.37276489 -28.93187045 31.59172793 -33 31 C-36.37244608 28.23286475 -36.93281251 26.51230461 -37.5 22.1875 C-37.18207857 16.75206917 -35.16882647 12.43403623 -31.5625 8.38671875 C-27.18156061 4.64817672 -23.06814307 4.49558878 -17.453125 4.62890625 C-15 5 -15 5 -12 7 C-12 8.32 -12 9.64 -12 11 C-15.37462715 10.45276317 -17.08235 9.9451 -20 8 C-23.69664181 8.09728005 -24.94631086 8.9524119 -27.75 11.4375 C-30.70726333 14.80549435 -31.12485333 16.26026689 -31.0625 20.625 C-31.04896484 21.85089844 -31.04896484 21.85089844 -31.03515625 23.1015625 C-31.02355469 23.72804688 -31.01195312 24.35453125 -31 25 C-28.66705225 25.04241723 -26.33297433 25.04092937 -24 25 C-22.45568254 23.45568254 -22.77218719 21.82872314 -22.625 19.6875 C-22.26369059 15.96778998 -21.72836252 13.72836252 -19 11 C-17.68 11.66 -16.36 12.32 -15 13 C-15.875 20.625 -15.875 20.625 -17 24 C-16.67 24.33 -16.34 24.66 -16 25 C-11.24762901 24.83061955 -11.24762901 24.83061955 -7.31640625 22.46484375 C-5.4633688 18.99520984 -5.43148595 15.59834557 -5.3125 11.75 C-5.27833984 11.00492188 -5.24417969 10.25984375 -5.20898438 9.4921875 C-5.12685946 7.66197508 -5.06174347 5.83101331 -5 4 C-5.66 4 -6.32 4 -7 4 C-6.67 3.01 -6.34 2.02 -6 1 C-4 0 -4 0 0 0 Z " fill="#000000" transform="translate(534,82)"/>
<path d="M0 0 C3.74622356 1.45015106 3.74622356 1.45015106 4.75 3.625 C5.11213997 7.06532971 5 10.5406628 5 14 C13.415 13.505 13.415 13.505 22 13 C22 13.99 22 14.98 22 16 C21 17 21 17 17.18359375 17.09765625 C15.60153318 17.09098089 14.01948841 17.07901875 12.4375 17.0625 C11.63119141 17.05798828 10.82488281 17.05347656 9.99414062 17.04882812 C7.99606244 17.03700518 5.99802217 17.01906914 4 17 C3.96132813 17.87398437 3.96132813 17.87398437 3.921875 18.765625 C3.56656562 23.90146052 2.67134923 28.32904615 0.9375 33.1875 C-1.50905946 40.13572888 -1.7063907 45.06487384 1 52 C3.78938212 52.41890218 3.78938212 52.41890218 7 52 C9.57285724 49.827365 11.48996919 48.02006162 13 45 C13.99 45.33 14.98 45.66 16 46 C10.57076909 55.36764842 10.57076909 55.36764842 7 57 C4.23776111 57.45179477 1.75495653 57.52502245 -1 57 C-3.5 55.125 -3.5 55.125 -5 53 C-5 52.34 -5 51.68 -5 51 C-5.66 51 -6.32 51 -7 51 C-7.25910156 51.61359375 -7.51820313 52.2271875 -7.78515625 52.859375 C-9.87510763 56.5419903 -13.06165145 57.75497368 -17 59 C-22.16573581 59.72147148 -26.4137659 59.79311705 -31.125 57.4375 C-33.66204669 54.1393393 -34.14348794 52.16115024 -34 48 C-32.56821058 45.60319501 -30.99998683 43.99998683 -29 42 C-29.99 41.34 -30.98 40.68 -32 40 C-33.21266134 36.79510932 -33.2082486 35.47129946 -31.8125 32.3125 C-29.87215905 29.83689258 -28.88999238 29.11076229 -26 28 C-23.203125 27.8046875 -23.203125 27.8046875 -20.25 27.875 C-19.26515625 27.89304687 -18.2803125 27.91109375 -17.265625 27.9296875 C-16.51796875 27.95289062 -15.7703125 27.97609375 -15 28 C-14.67 29.32 -14.34 30.64 -14 32 C-16.69998937 32.93461171 -18.13335549 32.97499585 -21 32.4375 C-24.22874882 31.9666408 -25.3275479 32.25262747 -28 34 C-27.67 34.99 -27.34 35.98 -27 37 C-25.12612784 37.80212628 -25.12612784 37.80212628 -22.9375 38.1875 C-21.83728516 38.42533203 -21.83728516 38.42533203 -20.71484375 38.66796875 C-20.14894531 38.77753906 -19.58304688 38.88710937 -19 39 C-20 42 -20 42 -23.5 43.875 C-26.52421031 45.48940476 -26.52421031 45.48940476 -28.125 48.5625 C-28.22911315 51.01650698 -28.22911315 51.01650698 -26.76171875 52.625 C-24.01036963 54.77239443 -21.67048466 54.46791809 -18.2890625 54.36328125 C-13.89330461 53.66566097 -11.05202437 51.05202437 -8 48 C-7.643867 45.12054774 -7.643867 45.12054774 -7.62109375 41.75 C-7.58693359 40.5021875 -7.55277344 39.254375 -7.51757812 37.96875 C-7.49115234 36.6590625 -7.46472656 35.349375 -7.4375 34 C-7.37774546 31.41656987 -7.31414358 28.83322493 -7.24609375 26.25 C-7.22216553 25.10015625 -7.1982373 23.9503125 -7.17358398 22.765625 C-7 20 -7 20 -6 18 C-6.64066406 18.03480469 -7.28132812 18.06960937 -7.94140625 18.10546875 C-13.79534081 18.28867684 -17.89792137 17.97621254 -23 15 C-24.4375 12.8125 -24.4375 12.8125 -25 11 C-24.0925 11.33 -23.185 11.66 -22.25 12 C-16.93816204 13.55521854 -11.47979305 13.16196433 -6 13 C-5.81824219 12.31292969 -5.63648438 11.62585938 -5.44921875 10.91796875 C-5.19785156 10.01691406 -4.94648437 9.11585937 -4.6875 8.1875 C-4.44386719 7.29417969 -4.20023438 6.40085937 -3.94921875 5.48046875 C-2.9799181 2.94752262 -2.04990396 1.7283504 0 0 Z M-1 6 C-1.33 8.64 -1.66 11.28 -2 14 C-1.01 14 -0.02 14 1 14 C1 11.69 1 9.38 1 7 C0.34 6.67 -0.32 6.34 -1 6 Z M-2 17 C-2 20.96 -2 24.92 -2 29 C-1.67 29 -1.34 29 -1 29 C-0.01751476 24.9472484 0.08159574 21.16138263 0 17 C-0.66 17 -1.32 17 -2 17 Z " fill="#000000" transform="translate(602,55)"/>
<path d="M0 0 C2.125 0.375 2.125 0.375 4 1 C5.06528853 5.35489949 5.19122618 9.60412479 5.1875 14.0625 C5.1884668 15.2985498 5.1884668 15.2985498 5.18945312 16.55957031 C5.07199113 31.71750715 3.92958206 46.87451314 3 62 C3.52400391 60.93458984 3.52400391 60.93458984 4.05859375 59.84765625 C4.51363281 58.92855469 4.96867187 58.00945312 5.4375 57.0625 C5.88996094 56.14597656 6.34242188 55.22945312 6.80859375 54.28515625 C8 52 8 52 9 51 C10.66617115 50.95936168 12.33388095 50.957279 14 51 C15.08864793 53.17729586 15.24761151 54.65034473 15.46484375 57.0625 C15.58182617 58.25746094 15.58182617 58.25746094 15.70117188 59.4765625 C15.85869041 61.15849597 16.01233869 62.84079641 16.16210938 64.5234375 C16.24138672 65.32007812 16.32066406 66.11671875 16.40234375 66.9375 C16.46929443 67.66839844 16.53624512 68.39929688 16.60522461 69.15234375 C16.87583517 71.23833602 16.87583517 71.23833602 19 73 C21.06874034 73.6425235 21.06874034 73.6425235 23 74 C23 74.66 23 75.32 23 76 C19.94926088 76.28780558 17.04438269 76.40014977 14 76 C10.177668 72.53601163 10.49170545 67.40345187 10.2109375 62.5234375 C10.0895573 59.87516755 10.0895573 59.87516755 9 57 C8.67386719 58.04800781 8.34773438 59.09601563 8.01171875 60.17578125 C7.57079465 61.55484175 7.12936168 62.93373962 6.6875 64.3125 C6.47416016 65.00279297 6.26082031 65.69308594 6.04101562 66.40429688 C4.00271451 72.70173464 4.00271451 72.70173464 1 75 C0.01 74.67 -0.98 74.34 -2 74 C-3.03634527 67.50556963 -2.92178777 61.42774914 -2.5625 54.875 C-2.15751448 46.54598283 -1.95998448 38.25139027 -2 29.9140625 C-2.00378159 29.05311981 -2.00756317 28.19217712 -2.01145935 27.30514526 C-2.0340766 22.99334507 -2.07221953 18.68213344 -2.12524414 14.37060547 C-2.13710947 12.77832199 -2.14875707 11.18603688 -2.16015625 9.59375 C-2.17365112 8.85532867 -2.187146 8.11690735 -2.2010498 7.35610962 C-2.20986534 5.56950415 -2.11400672 3.78298606 -2 2 C-1.34 1.34 -0.68 0.68 0 0 Z " fill="#000000" transform="translate(304,37)"/>
<path d="M0 0 C1.45212891 -0.03867188 1.45212891 -0.03867188 2.93359375 -0.078125 C5.5625 0.25 5.5625 0.25 7.41015625 1.578125 C8.5625 3.25 8.5625 3.25 8.5625 6.25 C7.2425 6.58 5.9225 6.91 4.5625 7.25 C4.583125 8.28125 4.60375 9.3125 4.625 10.375 C4.56973339 13.80152969 4.21699285 16.89572414 3.5625 20.25 C6.3071344 20.83776634 6.3071344 20.83776634 9.5625 20.25 C11.3706935 18.55641031 12.79548532 16.77305215 14.265625 14.78125 C14.69359375 14.2759375 15.1215625 13.770625 15.5625 13.25 C16.2225 13.25 16.8825 13.25 17.5625 13.25 C17.11646127 18.30510556 14.91549176 20.65166738 11.5625 24.25 C8.43543041 25.8135348 4.98267557 25.64958487 1.5625 25.25 C0.5725 24.59 -0.4175 23.93 -1.4375 23.25 C-2.13875 23.745 -2.84 24.24 -3.5625 24.75 C-6.91071887 26.4968968 -8.7133163 26.80466566 -12.4375 26.25 C-15.25753241 24.26835561 -16.24213945 22.81003359 -17.375 19.5625 C-17.47607725 14.2054055 -16.40680509 9.43306338 -12.74609375 5.375 C-8.45942848 1.65213413 -5.75333208 0.09168657 0 0 Z M-7.4375 5.25 C-10.80991963 8.71609795 -12.33571241 11.36419561 -12.4375 16.25 C-11.12076167 19.08658587 -11.12076167 19.08658587 -9.4375 21.25 C-5.9725 20.755 -5.9725 20.755 -2.4375 20.25 C-1.40844087 16.58554553 -1.19418438 13.06117233 -1.01171875 9.2734375 C-0.4375 7.25 -0.4375 7.25 1.60546875 5.9765625 C2.25128906 5.73679687 2.89710938 5.49703125 3.5625 5.25 C-1.0776815 1.5378548 -2.53196977 1.86284818 -7.4375 5.25 Z " fill="#000000" transform="translate(370.4375,86.75)"/>
<path d="M0 0 C1.2065625 0.0309375 1.2065625 0.0309375 2.4375 0.0625 C2.45731934 0.62759277 2.47713867 1.19268555 2.49755859 1.77490234 C2.59268236 4.32957997 2.70241058 6.88342541 2.8125 9.4375 C2.8434375 10.32695313 2.874375 11.21640625 2.90625 12.1328125 C2.94492187 12.98359375 2.98359375 13.834375 3.0234375 14.7109375 C3.07056885 15.88922119 3.07056885 15.88922119 3.11865234 17.09130859 C3.2774465 19.29252939 3.2774465 19.29252939 5.4375 21.0625 C6.0975 21.0625 6.7575 21.0625 7.4375 21.0625 C7.4375 22.0525 7.4375 23.0425 7.4375 24.0625 C4.7975 24.0625 2.1575 24.0625 -0.5625 24.0625 C-1.5525 21.4225 -2.5425 18.7825 -3.5625 16.0625 C-4.160625 17.01125 -4.75875 17.96 -5.375 18.9375 C-7.5625 22.0625 -7.5625 22.0625 -10.5625 24.0625 C-15.8327887 24.61148841 -15.8327887 24.61148841 -18.234375 22.8046875 C-19.88408205 20.64066001 -19.90782749 19.5680015 -19.8125 16.875 C-19.78671875 16.08867188 -19.7609375 15.30234375 -19.734375 14.4921875 C-19.48640446 10.98678583 -19.06835584 7.54025888 -18.5625 4.0625 C-19.2225 4.0625 -19.8825 4.0625 -20.5625 4.0625 C-20.5625 3.0725 -20.5625 2.0825 -20.5625 1.0625 C-18.1875 0.9375 -18.1875 0.9375 -15.5625 1.0625 C-13.5625 3.0625 -13.5625 3.0625 -13.3671875 6.7578125 C-13.380491 8.23450108 -13.40435165 9.71112358 -13.4375 11.1875 C-13.44652344 11.94160156 -13.45554687 12.69570312 -13.46484375 13.47265625 C-13.4884313 15.33607254 -13.52430281 17.19932593 -13.5625 19.0625 C-12.5725 19.0625 -11.5825 19.0625 -10.5625 19.0625 C-6.29192705 14.52580826 -4.83890266 9.07293743 -3.921875 3.06640625 C-3.38179988 0.0549004 -3.12060136 0.07611223 0 0 Z " fill="#000000" transform="translate(345.5625,87.9375)"/>
<path d="M0 0 C2.375 0.3125 2.375 0.3125 3.375 1.3125 C3.47431619 2.72629519 3.50469295 4.14522849 3.5 5.5625 C3.5 6.38105469 3.5 7.19960937 3.5 8.04296875 C3.375 10.3125 3.375 10.3125 2.5 12.875 C2.33700764 16.0533511 3.31579859 16.71212429 5.3125 19.125 C7.61913206 21.96805812 8.83976705 23.80010983 8.9375 27.5 C8.37298611 31.3261497 7.71194973 33.28312072 5.375 36.3125 C4.9625 36.910625 4.55 37.50875 4.125 38.125 C1.34023819 40.0146598 -1.36568562 39.49698949 -4.625 39.3125 C-5.25 37 -5.25 37 -5.625 34.3125 C-4.965 33.3225 -4.305 32.3325 -3.625 31.3125 C-2.635 31.6425 -1.645 31.9725 -0.625 32.3125 C-0.625 32.9725 -0.625 33.6325 -0.625 34.3125 C1.35991642 34.04573796 1.35991642 34.04573796 3.375 33.3125 C4.75822029 30.2701122 4.75822029 30.2701122 3.0625 27.25 C1.53942704 24.30298769 1.53942704 24.30298769 -0.625 22.3125 C-0.95113281 22.95058594 -1.27726562 23.58867188 -1.61328125 24.24609375 C-2.05027344 25.07238281 -2.48726563 25.89867188 -2.9375 26.75 C-3.58138672 27.98556641 -3.58138672 27.98556641 -4.23828125 29.24609375 C-5.625 31.3125 -5.625 31.3125 -8.625 32.3125 C-7.6200538 29.06575074 -6.55678884 26.18618303 -4.9375 23.1875 C-3.41279651 20.50201481 -3.41279651 20.50201481 -3.875 18.125 C-4.24625 17.2278125 -4.24625 17.2278125 -4.625 16.3125 C-6.22774531 11.50426407 -6.59885092 6.41396778 -4.4375 1.75 C-2.625 0.3125 -2.625 0.3125 0 0 Z M-1.625 4.3125 C-2.30458603 6.70969432 -2.30458603 6.70969432 -2.625 9.3125 C-1.965 9.9725 -1.305 10.6325 -0.625 11.3125 C-0.625 9.0025 -0.625 6.6925 -0.625 4.3125 C-0.955 4.3125 -1.285 4.3125 -1.625 4.3125 Z " fill="#000000" transform="translate(287.625,74.6875)"/>
<path d="M0 0 C3 1.875 3 1.875 5 5 C5.94758149 9.96432072 5.6428425 14.44734535 3.25 18.9375 C0.15740675 23.14686304 -1.81079053 24.95161518 -6.9375 25.875 C-10.81459515 26.23599582 -12.93416285 25.52480706 -16 23 C-18.70767559 18.93848662 -18.52215457 15.76466041 -18 11 C-15.03470684 2.72839277 -8.72517383 -1.40136635 0 0 Z M-13 8 C-13.63029892 11.12815021 -13.64421667 13.87332773 -13 17 C-11.01841274 20.2338734 -11.01841274 20.2338734 -8 22 C-4.82746526 22.07553654 -3.57447897 21.49524049 -1.1875 19.4375 C0.50635697 15.96063569 0.66794915 12.74793688 0 9 C-1.50341458 5.93114486 -1.50341458 5.93114486 -4 4 C-8.38506139 3.01336119 -10.57420747 4.31638913 -13 8 Z " fill="#000000" transform="translate(272,87)"/>
<path d="M0 0 C1.98 0 3.96 0 6 0 C6.6875 2.3125 6.6875 2.3125 7 5 C5.8125 6.875 5.8125 6.875 4 8 C1.8125 7.6875 1.8125 7.6875 0 7 C-1.125 2.25 -1.125 2.25 0 0 Z " fill="#000000" transform="translate(456,74)"/>
</svg>
